PathFileType        4      (X/Y/Z)      C:\Users\cpontonn\Documents\TRAVAIL - COURS\DIGISPORT\Partage Nico\Partage Nico DIGISPORT\TP OPENSIM - eleves - work\DATA\transformed_Marche0007.trc         
DataRate	CameraRate	NumFrames	NumMarkers	Units	OrigDataRate	OrigDataStartFrame	OrigNumFrames
100.0	100.0	4	38	mm	100.0	208	414
Frame#	Time	LFHD			LBHD			RFHD			RBHD			C7			T10			CLAV			STRN			LSHO			LRAD			LHUM			LWRB			LWRA			LCAR			RSHO			RRAD			RHUM			RWRB			RWRA			RCAR			LFWT			LBWT			RFWT			RBWT			LKNE			LKNI			LANE			LHEE			LANI			LTAR			LTOE			RKNE			RKNI			RANE			RHEE			RANI			RTAR			RTOE			
		X1	Y1	Z1	X2	Y2	Z2	X3	Y3	Z3	X4	Y4	Z4	X5	Y5	Z5	X6	Y6	Z6	X7	Y7	Z7	X8	Y8	Z8	X9	Y9	Z9	X10	Y10	Z10	X11	Y11	Z11	X12	Y12	Z12	X13	Y13	Z13	X14	Y14	Z14	X15	Y15	Z15	X16	Y16	Z16	X17	Y17	Z17	X18	Y18	Z18	X19	Y19	Z19	X20	Y20	Z20	X21	Y21	Z21	X22	Y22	Z22	X23	Y23	Z23	X24	Y24	Z24	X25	Y25	Z25	X26	Y26	Z26	X27	Y27	Z27	X28	Y28	Z28	X29	Y29	Z29	X30	Y30	Z30	X31	Y31	Z31	X32	Y32	Z32	X33	Y33	Z33	X34	Y34	Z34	X35	Y35	Z35	X36	Y36	Z36	X37	Y37	Z37	X38	Y38	Z38	
208	2.07	52.54367999999998	1671.96729	186.2295500000001	-96.66840000000003	1695.47839	185.3270000000001	53.81525999999996	1673.05945	321.1074200000001	-108.99537000000004	1691.74768	311.2966900000001	-199.51968000000002	1582.52686	265.89487000000014	-318.44739000000004	1376.18726	258.92908	-96.89179000000003	1475.50452	269.85464000000013	-94.53764000000002	1298.06946	269.6833500000001	-147.26515	1544.56665	67.67120000000008	-171.72482	1177.724	-27.20480999999995	-198.02692	1176.25171	35.27314000000005	31.604690000000005	1013.49542	-30.224749999999936	62.79878999999999	1045.67188	33.33735000000007	122.54798	996.3114	-23.465099999999925	-161.22751000000005	1526.89465	456.4007600000001	-326.78110000000004	1192.01831	519.9035600000001	-350.1043700000001	1206.23865	464.85205	-335.34601000000004	932.75476	551.9778400000001	-299.24969000000004	918.02057	490.31223	-321.44513000000006	844.8136	548.09296	-92.67743000000002	1037.23364	159.93277000000006	-282.76266000000004	1066.70752	242.73880000000003	-79.35953000000005	1036.74939	350.9496500000001	-278.0394600000001	1059.3689	323.43317	-320.37952	544.64355	120.70706999999999	-330.41931000000005	513.51947	235.27402	-502.80032	123.27461999999998	163.79378999999994	-604.39722	59.54416999999999	208.3831199999999	-501.52853000000005	130.90610999999998	252.64173999999994	-360.89618	38.72899999999999	152.18918999999994	-314.84009000000003	31.879589999999986	243.53731999999997	23.49373999999995	549.31775	420.2604400000001	43.52214999999996	511.56311	324.0810900000001	225.79288999999994	131.18639999999996	405.01559	200.46915999999996	35.18201999999998	335.87692	225.05663999999996	163.74225999999996	317.34094	387.4650899999999	166.36657999999997	437.17465000000004	431.83565999999996	209.67405999999997	356.8998700000001	
209	2.08	66.71790999999997	1670.18262	189.0653400000001	-82.45147000000003	1693.46399	188.1400300000001	67.90522999999996	1670.5426	323.9462300000001	-94.18257000000004	1689.1626	314.2667800000001	-185.04640000000003	1579.67859	268.25204000000014	-303.52090000000004	1373.07117	260.85995	-82.43622000000003	1472.97266	271.6066300000001	-79.37062000000003	1294.99512	270.76889000000006	-133.21324	1542.27112	69.63602000000009	-158.74551	1175.78052	-26.476199999999945	-185.13171	1174.0376	37.02314000000005	43.06036000000001	1009.75439	-29.746259999999936	74.76099	1041.6178	33.70673000000007	133.8745	992.20868	-23.704099999999922	-146.43051000000006	1523.28479	458.63724000000013	-310.98593000000005	1187.69885	521.1254900000001	-334.64313000000004	1202.06726	466.22714	-319.63354000000004	928.40558	552.4259000000001	-284.11795000000006	913.90643	490.34671	-306.13031000000007	840.44165	547.7981	-78.11317000000001	1034.23816	160.17131000000006	-267.77042000000006	1063.75684	244.44838000000001	-63.86477000000004	1033.8158	351.2239400000001	-262.35330000000005	1056.32104	325.12857	-309.72397	543.19592	120.85247999999999	-319.97812000000005	512.10315	235.42082	-500.82373	125.52086999999999	163.72367999999994	-603.47949	63.602969999999985	208.3488199999999	-499.42361000000005	133.15195999999997	252.54537999999994	-360.67908	38.48559999999999	152.08378999999994	-314.66943000000003	31.533779999999986	243.56293999999997	42.35005999999995	548.47974	420.54434000000003	61.79320999999996	510.22437	324.34357000000006	242.98166999999995	128.60178999999997	404.42352000000005	217.96963999999997	33.25003999999998	334.35489	242.20473999999996	162.01398999999998	316.9159900000001	404.5880399999999	164.02862999999996	436.74176000000006	448.73009999999994	208.36797999999996	356.86600000000004	
210	2.09	81.02519999999997	1668.62805	192.06117000000012	-68.23082000000002	1691.59106	191.1314400000001	82.09443999999996	1668.30176	326.8901100000001	-80.03334000000004	1686.63196	317.2182600000001	-170.39423000000002	1577.02405	270.66928000000013	-288.47427000000005	1370.10608	262.89325	-67.51699000000004	1470.53601	273.4773600000001	-64.06552000000003	1292.20032	272.03204000000005	-119.07675000000002	1539.98132	71.63553000000009	-146.37492	1173.51648	-23.752619999999947	-172.22833	1171.92371	38.89652000000005	54.002930000000006	1005.71271	-29.24412999999993	86.2565	1037.10791	34.20190000000007	144.62796	987.47742	-23.81457999999992	-131.59560000000005	1519.87878	460.9104600000001	-294.9415000000001	1183.42383	522.3781700000001	-318.89041000000003	1197.95471	467.58578	-303.44800000000004	924.09888	552.93976	-268.39786000000004	909.85632	490.52448	-290.2685200000001	836.1452	547.66541	-63.431600000000024	1031.33191	160.51855000000006	-252.59065000000004	1061.03674	246.16762000000003	-48.210430000000045	1031.099	351.52911000000006	-246.49384000000003	1053.60925	326.7421	-298.10263	541.59418	120.95204999999999	-308.74451000000005	510.5936	235.49414	-498.54736	128.07016	163.57465999999994	-602.38293	68.30981999999999	208.33545999999993	-496.95840000000004	135.80616999999998	252.43961999999993	-360.43112	38.25943999999999	151.97283999999993	-314.54654000000005	31.203449999999986	243.55443999999997	61.82762999999995	547.98865	420.83597000000003	81.01062999999996	509.40439	324.58310000000006	257.45556999999997	124.95537999999998	403.59171000000003	231.83262999999997	29.87873999999998	333.35574	257.0064699999999	158.55573999999996	316.25995000000006	419.09099999999995	159.42153999999996	436.16855000000004	463.60479999999995	203.66544999999996	356.46732000000003	
211	2.1	95.35689999999997	1667.3125	195.17534000000012	-53.95287000000002	1689.87756	194.20723000000012	96.27899999999995	1666.3241	330.0030200000001	-65.88565000000004	1684.26074	320.2731300000001	-155.59685000000002	1574.49377	273.0973500000001	-273.26025000000004	1367.22009	264.94153	-52.44628000000004	1468.22681	275.4618200000001	-48.70356000000004	1289.60059	273.41727000000003	-104.70841000000001	1537.87573	73.75853000000008	-133.80743	1171.62183	-21.804109999999948	-159.39703	1170.00769	40.91162000000005	63.84297	1001.82507	-27.82586999999993	97.30592	1032.13562	34.72200000000008	154.81718	982.17285	-23.86552999999992	-116.78552000000006	1516.67957	463.2146300000001	-278.6576800000001	1179.27258	523.5479100000001	-302.80402000000004	1193.87012	468.83078	-286.87350000000004	919.95526	553.53967	-252.16771000000006	905.92413	490.94846	-273.84634000000005	831.98676	547.83368	-48.453180000000025	1028.55444	161.01628000000005	-237.12321000000003	1058.45251	247.78537000000003	-32.35523000000004	1028.63379	351.9332600000001	-230.70743000000002	1051.27795	328.32230000000004	-285.62292	539.85229	120.97408	-296.70999000000006	508.91992	235.46893	-495.88568	131.026	163.33437999999995	-600.98199	73.61093999999999	208.2666199999999	-494.10461000000004	138.75162999999998	252.29313999999994	-360.12027	38.056369999999994	151.83651999999995	-314.51309000000003	30.851759999999985	243.47259999999997	81.69831999999994	547.74469	421.20624000000004	100.96828999999995	509.22855	324.81732000000005	269.37774999999993	120.19074999999997	402.6870400000001	242.57456999999997	25.282299999999978	332.63916000000006	269.41713999999996	153.71886999999998	315.4549600000001	431.2628199999999	152.82233999999997	435.23508000000004	476.40346999999997	196.30687999999998	355.51758000000007	
